<svg id="closed-envelope-email" xmlns="http://www.w3.org/2000/svg" viewBox="0 0 19.144 15.446">
  <defs>
    <style>
      .cls-1 {
        fill: #444;
      }
    </style>
  </defs>
  <g id="Group_93" data-name="Group 93">
    <path id="Path_167" data-name="Path 167" class="cls-1" d="M19.144,40.4a.743.743,0,0,0-.746-.736H.746A.743.743,0,0,0,0,40.4V54.378a.743.743,0,0,0,.746.736H18.4a.743.743,0,0,0,.746-.736ZM1.492,53.642V44.926l7.5,6.362a.682.682,0,0,0,.472.172.878.878,0,0,0,.51-.172l7.682-6.338v8.692Zm16.161-12.5v1.9c-.124.012-.062.025-.075.025L9.473,49.768,1.517,43.026c-.012-.012-.025-.025-.025-.037V41.138Z" transform="translate(0 -39.667)"/>
  </g>
</svg>
