<svg xmlns="http://www.w3.org/2000/svg" viewBox="0 0 19.17 19.153">
  <defs>
    <style>
      .cls-1 {
        fill: #444;
      }
    </style>
  </defs>
  <g id="telephone-call-receiver" transform="translate(19.17) rotate(90)">
    <g id="Group_16" data-name="Group 16" transform="translate(0)">
      <path id="Path_26" data-name="Path 26" class="cls-1" d="M1.665,17.9a1.306,1.306,0,0,0,.136.111l.678.419c.025.012.062.037.086.049a8.192,8.192,0,0,0,3.314.69,6.94,6.94,0,0,0,4.977-1.934l6.394-6.394a7.543,7.543,0,0,0,1.2-8.267.5.5,0,0,0-.062-.111l-.431-.653c-.025-.037-.062-.074-.086-.111L16.72.554A1.885,1.885,0,0,0,15.39,0a1.735,1.735,0,0,0-1.22.505L10.844,3.831a1.811,1.811,0,0,0,.037,2.563L12.186,7.7,7.739,12.147,6.408,10.817a1.676,1.676,0,0,0-1.269-.542,1.8,1.8,0,0,0-1.257.517L.557,14.118A1.967,1.967,0,0,0,0,15.4a1.78,1.78,0,0,0,.505,1.343ZM1.6,15.166,4.93,11.839a.318.318,0,0,1,.456.025l1.848,1.848a.751.751,0,0,0,1.047,0L13.763,8.23a.761.761,0,0,0,.222-.517.709.709,0,0,0-.222-.517L11.94,5.347a.349.349,0,0,1-.037-.48L15.229,1.54a.224.224,0,0,1,.172-.074.424.424,0,0,1,.283.123l1.084,1.084.357.542a6,6,0,0,1-.912,6.554L9.821,16.188a5.481,5.481,0,0,1-3.942,1.5,6.674,6.674,0,0,1-2.661-.542L2.651,16.8l-1.1-1.1a.325.325,0,0,1-.074-.234A.583.583,0,0,1,1.6,15.166Z"/>
    </g>
  </g>
</svg>
